REM DIRINDEX 1\2\6,1\2\7,1\2\8,1\2\9,1\3\10,1\3\11,1\4\12,1\4\13,1\4\14,1\5\15,1\5\16,1\5\17
REM DIRNAME folder01,folder02,folder03,folder04,folder05,folder06,folder07,folder08,folder09,folder10,folder11,folder12,folder13,folder14,folder15,folder16,folder17
TITLE ""
FILE "1900_3_014 sec03_0215_0230.mp3" MP3
  TRACK 01 AUDIO
    TITLE "0:"
    INDEX 01 00:00:00
  TRACK 02 AUDIO
    TITLE "17:cjc020_6398"
    INDEX 01 00:00:19
  TRACK 03 AUDIO
    TITLE "0:"
    INDEX 01 00:01:28
  TRACK 04 AUDIO
    TITLE "16:cjc020_6399"
    INDEX 01 00:01:32
  TRACK 05 AUDIO
    TITLE "0:"
    INDEX 01 00:02:30
  TRACK 06 AUDIO
    TITLE "17:cjc020_6400"
    INDEX 01 00:03:15
  TRACK 07 AUDIO
    TITLE "0:"
    INDEX 01 00:04:19
  TRACK 08 AUDIO
    TITLE "16:cjc020_6401"
    INDEX 01 00:04:25
  TRACK 09 AUDIO
    TITLE "0:"
    INDEX 01 00:05:30
  TRACK 10 AUDIO
    TITLE "17:cjc020_6402"
    INDEX 01 00:06:14
  TRACK 11 AUDIO
    TITLE "0:"
    INDEX 01 00:07:09
  TRACK 12 AUDIO
    TITLE "16:cjc020_6403"
    INDEX 01 00:07:15
  TRACK 13 AUDIO
    TITLE "0:"
    INDEX 01 00:08:34
  TRACK 14 AUDIO
    TITLE "17:cjc020_6404"
    INDEX 01 00:09:18
  TRACK 15 AUDIO
    TITLE "0:"
    INDEX 01 00:11:21
  TRACK 16 AUDIO
    TITLE "16:cjc020_6405"
    INDEX 01 00:11:27
  TRACK 17 AUDIO
    TITLE "0:"
    INDEX 01 00:12:42
  TRACK 18 AUDIO
    TITLE "17:cjc020_6406"
    INDEX 01 00:13:24
  TRACK 19 AUDIO
    TITLE "0:"
    INDEX 01 00:14:51
  TRACK 20 AUDIO
    TITLE "16:cjc020_6407"
    INDEX 01 00:14:58
  TRACK 21 AUDIO
    TITLE "0:"
    INDEX 01 00:16:00
  TRACK 22 AUDIO
    TITLE "17:cjc020_6408"
    INDEX 01 00:16:61
  TRACK 23 AUDIO
    TITLE "0:"
    INDEX 01 00:18:19
  TRACK 24 AUDIO
    TITLE "16:cjc020_6409"
    INDEX 01 00:18:25
  TRACK 25 AUDIO
    TITLE "0:"
    INDEX 01 00:19:26
  TRACK 26 AUDIO
    TITLE "17:cjc020_6410"
    INDEX 01 00:20:08
  TRACK 27 AUDIO
    TITLE "0:"
    INDEX 01 00:21:19
  TRACK 28 AUDIO
    TITLE "16:cjc020_6411"
    INDEX 01 00:21:23
  TRACK 29 AUDIO
    TITLE "0:"
    INDEX 01 00:22:34
  TRACK 30 AUDIO
    TITLE "17:cjc020_6412"
    INDEX 01 00:23:18
  TRACK 31 AUDIO
    TITLE "0:"
    INDEX 01 00:24:02
  TRACK 32 AUDIO
    TITLE "16:cjc020_6413"
    INDEX 01 00:24:06
  TRACK 33 AUDIO
    TITLE "0:"
    INDEX 01 00:25:09
  TRACK 34 AUDIO
    TITLE "17:cjc020_6414"
    INDEX 01 00:25:70
  TRACK 35 AUDIO
    TITLE "0:"
    INDEX 01 00:27:36
  TRACK 36 AUDIO
    TITLE "16:cjc020_6415"
    INDEX 01 00:27:43
  TRACK 37 AUDIO
    TITLE "0:"
    INDEX 01 00:28:49
  TRACK 38 AUDIO
    TITLE "17:cjc020_6416"
    INDEX 01 00:29:33
  TRACK 39 AUDIO
    TITLE "0:"
    INDEX 01 00:30:38
  TRACK 40 AUDIO
    TITLE "16:cjc020_6417"
    INDEX 01 00:30:42
  TRACK 41 AUDIO
    TITLE "0:"
    INDEX 01 00:31:41
  TRACK 42 AUDIO
    TITLE "17:cjc020_6418"
    INDEX 01 00:32:25
  TRACK 43 AUDIO
    TITLE "0:"
    INDEX 01 00:33:42
  TRACK 44 AUDIO
    TITLE "16:cjc020_6419"
    INDEX 01 00:33:48
  TRACK 45 AUDIO
    TITLE "0:"
    INDEX 01 00:34:55
  TRACK 46 AUDIO
    TITLE "17:cjc020_6420"
    INDEX 01 00:35:41
  TRACK 47 AUDIO
    TITLE "0:"
    INDEX 01 00:36:66
  TRACK 48 AUDIO
    TITLE "16:cjc020_6421"
    INDEX 01 00:36:72
  TRACK 49 AUDIO
    TITLE "0:"
    INDEX 01 00:37:73
  TRACK 50 AUDIO
    TITLE "17:cjc020_6422"
    INDEX 01 00:38:59
  TRACK 51 AUDIO
    TITLE "0:"
    INDEX 01 00:40:15
  TRACK 52 AUDIO
    TITLE "16:cjc020_6423"
    INDEX 01 00:40:23
  TRACK 53 AUDIO
    TITLE "0:"
    INDEX 01 00:41:42
  TRACK 54 AUDIO
    TITLE "17:cjc020_6424"
    INDEX 01 00:42:29
  TRACK 55 AUDIO
    TITLE "0:"
    INDEX 01 00:43:29
  TRACK 56 AUDIO
    TITLE "16:cjc020_6425"
    INDEX 01 00:43:39
  TRACK 57 AUDIO
    TITLE "0:"
    INDEX 01 00:44:32
  TRACK 58 AUDIO
    TITLE "17:cjc020_6426"
    INDEX 01 00:45:18
  TRACK 59 AUDIO
    TITLE "0:"
    INDEX 01 00:46:27
  TRACK 60 AUDIO
    TITLE "16:cjc020_6427"
    INDEX 01 00:46:31
  TRACK 61 AUDIO
    TITLE "0:"
    INDEX 01 00:47:42
  TRACK 62 AUDIO
    TITLE "17:cjc020_6428"
    INDEX 01 00:48:24
  TRACK 63 AUDIO
    TITLE "0:"
    INDEX 01 00:50:33
  TRACK 64 AUDIO
    TITLE "16:cjc020_6429"
    INDEX 01 00:50:39
  TRACK 65 AUDIO
    TITLE "0:"
    INDEX 01 00:51:46
